<svg xmlns="http://www.w3.org/2000/svg" xmlns:xlink="http://www.w3.org/1999/xlink" xmlns:lucid="lucid" width="2340" height="1380"><g transform="translate(-140 640)" lucid:page-tab-id="0_0"><path d="M0-1296h3456v2656H0z" fill="#fff"/><path d="M160-55c0-2.76 2.24-5 5-5h270c2.76 0 5 2.24 5 5v250c0 2.76-2.24 5-5 5H165c-2.76 0-5-2.24-5-5z" stroke="#000" stroke-width="2" fill="#fff"/><path d="M160-22h280M160 140h280" stroke="#000" stroke-width="2" fill="none"/><use xlink:href="#a" transform="matrix(1,0,0,1,168,-60) translate(111.525 22.6)"/><use xlink:href="#b" transform="matrix(1,0,0,1,172,-14.399999999999999) translate(0 44.69999999999999)"/><use xlink:href="#c" transform="matrix(1,0,0,1,172,-14.399999999999999) translate(0 66.3)"/><use xlink:href="#d" transform="matrix(1,0,0,1,172,-14.399999999999999) translate(0 87.9)"/><use xlink:href="#e" transform="matrix(1,0,0,1,172,-14.399999999999999) translate(0 109.5)"/><path d="M680 125c0-2.76 2.24-5 5-5h270c2.76 0 5 2.24 5 5v230c0 2.76-2.24 5-5 5H685c-2.76 0-5-2.24-5-5z" stroke="#000" stroke-width="2" fill="#fff"/><path d="M680 158h280M680 281h280" stroke="#000" stroke-width="2" fill="none"/><use xlink:href="#f" transform="matrix(1,0,0,1,688,120) translate(99.1 22.6)"/><use xlink:href="#g" transform="matrix(1,0,0,1,692,165.6) translate(0 46.8)"/><use xlink:href="#h" transform="matrix(1,0,0,1,692,165.6) translate(0 68.4)"/><path d="M680-195c0-2.76 2.24-5 5-5h270c2.76 0 5 2.24 5 5V35c0 2.76-2.24 5-5 5H685c-2.76 0-5-2.24-5-5z" stroke="#000" stroke-width="2" fill="#fff"/><path d="M680-162h280M680-24h280" stroke="#000" stroke-width="2" fill="none"/><use xlink:href="#i" transform="matrix(1,0,0,1,688,-200) translate(92.725 22.6)"/><use xlink:href="#g" transform="matrix(1,0,0,1,692,-154.4) translate(0 43.5)"/><use xlink:href="#j" transform="matrix(1,0,0,1,692,-154.4) translate(0 65.10000000000001)"/><use xlink:href="#k" transform="matrix(1,0,0,1,692,-154.4) translate(0 86.70000000000002)"/><path d="M679 240H565c-2.76 0-5-2.24-5-5V75c0-2.76-2.24-5-5-5h-90.04" stroke="#000" stroke-width="2" fill="none"/><path d="M680 241h-1v-2h1z"/><path d="M464.48 82.73L442.96 70l21.52-12.73z" fill="#fff"/><path d="M465.48 84.48L441 70l24.48-14.48zM444.93 70l18.55 10.97V59.03z"/><path d="M679-80H565c-2.76 0-5 2.24-5 5V65c0 2.76-2.24 5-5 5h-90.04" stroke="#000" stroke-width="2" fill="none"/><path d="M680-79h-1v-2h1z"/><path d="M464.48 82.73L442.96 70l21.52-12.73z" fill="#fff"/><path d="M465.48 84.48L441 70l24.48-14.48zM444.93 70l18.55 10.97V59.03z"/><path d="M1160 125c0-2.76 2.24-5 5-5h350c2.76 0 5 2.24 5 5v230c0 2.76-2.24 5-5 5h-350c-2.76 0-5-2.24-5-5z" stroke="#000" stroke-width="2" fill="#fff"/><path d="M1160 158h360m-360 101h360" stroke="#000" stroke-width="2" fill="none"/><use xlink:href="#l" transform="matrix(1,0,0,1,1168,120) translate(123.6 22.6)"/><use xlink:href="#m" transform="matrix(1,0,0,1,1172,165.6) translate(0 46.6)"/><path d="M961 240h196.04" stroke="#000" stroke-width="2" fill="none"/><path d="M961 241h-1v-2h1zM1159 240l-19.53 11.55-1.02-1.72 16.62-9.83-16.62-9.83 1.02-1.72z"/><use xlink:href="#n" transform="matrix(1,0,0,1,961,243.99999999999997) translate(0 14.4)"/><use xlink:href="#o" transform="matrix(1,0,0,1,1129,214.39999999999998) translate(0 14.4)"/><path d="M1700-415c0-2.76 2.24-5 5-5h350c2.76 0 5 2.24 5 5v230c0 2.76-2.24 5-5 5h-350c-2.76 0-5-2.24-5-5z" stroke="#000" stroke-width="2" fill="#fff"/><path d="M1700-382h360m-360 101h360" stroke="#000" stroke-width="2" fill="none"/><use xlink:href="#p" transform="matrix(1,0,0,1,1708,-420) translate(161.05 22.6)"/><use xlink:href="#q" transform="matrix(1,0,0,1,1712,-374.4) translate(0 46.6)"/><path d="M951-201v-94c0-2.76 2.24-5 5-5h741.04" stroke="#000" stroke-width="2" fill="none"/><path d="M952-200h-2v-1h2zM1699-300l-19.53 11.55-1.02-1.72 16.62-9.83-16.62-9.83 1.02-1.72z"/><use xlink:href="#n" transform="matrix(1,0,0,1,959.0000000000001,-219.8) translate(0 14.4)"/><use xlink:href="#o" transform="matrix(1,0,0,1,1669,-325.6) translate(0 14.4)"/><path d="M660-615c0-2.76 2.24-5 5-5h350c2.76 0 5 2.24 5 5v230c0 2.76-2.24 5-5 5H665c-2.76 0-5-2.24-5-5z" stroke="#000" stroke-width="2" fill="#fff"/><path d="M660-582h360M660-444h360" stroke="#000" stroke-width="2" fill="none"/><use xlink:href="#r" transform="matrix(1,0,0,1,668,-620) translate(153.5 22.6)"/><use xlink:href="#s" transform="matrix(1,0,0,1,672,-574.4) translate(0 43.5)"/><use xlink:href="#t" transform="matrix(1,0,0,1,672,-574.4) translate(0 65.10000000000001)"/><use xlink:href="#u" transform="matrix(1,0,0,1,672,-574.4) translate(0 86.70000000000002)"/><path d="M820-201v-176.04" stroke="#000" stroke-width="2" fill="none"/><path d="M821-200h-2v-1h2zM831.55-359.47l-1.72 1.02-9.83-16.62-9.83 16.62-1.72-1.02L820-379z"/><use xlink:href="#n" transform="matrix(1,0,0,1,828,-221.8) translate(0 14.4)"/><use xlink:href="#n" transform="matrix(1,0,0,1,802,-379.8) translate(0 14.4)"/><path d="M1680 125c0-2.76 2.24-5 5-5h350c2.76 0 5 2.24 5 5v230c0 2.76-2.24 5-5 5h-350c-2.76 0-5-2.24-5-5z" stroke="#000" stroke-width="2" fill="#fff"/><path d="M1680 158h360m-360 101h360" stroke="#000" stroke-width="2" fill="none"/><use xlink:href="#v" transform="matrix(1,0,0,1,1688,120) translate(139.55 22.6)"/><use xlink:href="#w" transform="matrix(1,0,0,1,1692,165.6) translate(0 46.6)"/><path d="M1521 240h156.04" stroke="#000" stroke-width="2" fill="none"/><path d="M1521 241h-1v-2h1zM1679 240l-19.53 11.55-1.02-1.72 16.62-9.83-16.62-9.83 1.02-1.72z"/><use xlink:href="#n" transform="matrix(1,0,0,1,1521,243.99999999999997) translate(0 14.4)"/><use xlink:href="#n" transform="matrix(1,0,0,1,1669,214.39999999999998) translate(0 14.4)"/><path d="M1260 485c0-2.76 2.24-5 5-5h350c2.76 0 5 2.24 5 5v230c0 2.76-2.24 5-5 5h-350c-2.76 0-5-2.24-5-5z" stroke="#000" stroke-width="2" fill="#fff"/><path d="M1260 518h360m-360 138h360" stroke="#000" stroke-width="2" fill="none"/><use xlink:href="#x" transform="matrix(1,0,0,1,1268,480) translate(151.575 22.6)"/><use xlink:href="#b" transform="matrix(1,0,0,1,1272,525.6) translate(0 43.5)"/><use xlink:href="#y" transform="matrix(1,0,0,1,1272,525.6) translate(0 65.10000000000001)"/><use xlink:href="#z" transform="matrix(1,0,0,1,1272,525.6) translate(0 86.70000000000002)"/><path d="M1680 485c0-2.76 2.24-5 5-5h350c2.76 0 5 2.24 5 5v230c0 2.76-2.24 5-5 5h-350c-2.76 0-5-2.24-5-5z" stroke="#000" stroke-width="2" fill="#fff"/><path d="M1680 518h360m-360 123h360" stroke="#000" stroke-width="2" fill="none"/><use xlink:href="#A" transform="matrix(1,0,0,1,1688,480) translate(144.525 22.6)"/><use xlink:href="#d" transform="matrix(1,0,0,1,1692,525.6) translate(0 46.8)"/><use xlink:href="#e" transform="matrix(1,0,0,1,1692,525.6) translate(0 68.4)"/><path d="M2100 485c0-2.76 2.24-5 5-5h350c2.76 0 5 2.24 5 5v230c0 2.76-2.24 5-5 5h-350c-2.76 0-5-2.24-5-5z" stroke="#000" stroke-width="2" fill="#fff"/><path d="M2100 518h360m-360 138h360" stroke="#000" stroke-width="2" fill="none"/><use xlink:href="#B" transform="matrix(1,0,0,1,2108,480) translate(130.6 22.6)"/><use xlink:href="#C" transform="matrix(1,0,0,1,2112,525.6) translate(0 43.5)"/><use xlink:href="#D" transform="matrix(1,0,0,1,2112,525.6) translate(0 65.10000000000001)"/><use xlink:href="#E" transform="matrix(1,0,0,1,2112,525.6) translate(0 86.70000000000002)"/><path d="M1440 479v-54c0-2.76 2.24-5 5-5h410c2.76 0 5-2.24 5-5v-30.04" stroke="#000" stroke-width="2" fill="none"/><path d="M1441 480h-2v-1h2z"/><path d="M1872.73 384.48h-25.46l12.73-21.52z" fill="#fff"/><path d="M1874.48 385.48h-28.96L1860 361zm-25.45-2h21.94L1860 364.93z"/><path d="M1860 479v-94.04" stroke="#000" stroke-width="2" fill="none"/><path d="M1861 480h-2v-1h2z"/><path d="M1872.73 384.48h-25.46l12.73-21.52z" fill="#fff"/><path d="M1874.48 385.48h-28.96L1860 361zm-25.45-2h21.94L1860 364.93z"/><path d="M2280 479v-54c0-2.76-2.24-5-5-5h-410c-2.76 0-5-2.24-5-5v-30.04" stroke="#000" stroke-width="2" fill="none"/><path d="M2281 480h-2v-1h2z"/><path d="M1872.73 384.48h-25.46l12.73-21.52z" fill="#fff"/><path d="M1874.48 385.48h-28.96L1860 361zm-25.45-2h21.94L1860 364.93z"/><path d="M1140-235c0-2.76 2.24-5 5-5h350c2.76 0 5 2.24 5 5V-5c0 2.76-2.24 5-5 5h-350c-2.76 0-5-2.24-5-5z" stroke="#000" stroke-width="2" fill="#fff"/><path d="M1140-202h360m-360 101h360" stroke="#000" stroke-width="2" fill="none"/><use xlink:href="#h" transform="matrix(1,0,0,1,1148,-240) translate(124.07499999999999 22.6)"/><use xlink:href="#F" transform="matrix(1,0,0,1,1152,-194.4) translate(0 46.6)"/><path d="M1699-228h-94c-2.76 0-5 2.24-5 5v98c0 2.76-2.24 5-5 5h-92.04" stroke="#000" stroke-width="2" fill="none"/><path d="M1700-227h-1v-2h1zM1521.55-129.83l-16.62 9.83 16.62 9.83-1.02 1.72L1501-120l19.53-11.55z"/><use xlink:href="#n" transform="matrix(1,0,0,1,1689.9999999999998,-253.6) translate(0 14.4)"/><use xlink:href="#o" transform="matrix(1,0,0,1,1500.0000000000002,-115.99999999999999) translate(0 14.4)"/><path d="M1021-500h854c2.76 0 5 2.24 5 5v42.6" stroke="#000" stroke-width="2" fill="none"/><path d="M1021-499h-1v-2h1zM1894.85-437.26L1880-422.4l-14.85-14.86L1880-452.4z"/><path d="M1896.26-437.26L1880-421l-16.26-16.26 16.26-16.58zm-29.7 0l13.44 13.43 13.44-13.44L1880-451z"/><path d="M1880-179V35c0 2.76-2.24 5-5 5h-530c-2.76 0-5 2.24-5 5v42.6" stroke="#000" stroke-width="2" fill="none"/><path d="M1881-179h-2v-1h2zM1354.85 102.74L1340 117.6l-14.85-14.86L1340 87.6z"/><path d="M1356.26 102.74L1340 119l-16.26-16.26L1340 86.16zm-29.7 0l13.44 13.43 13.44-13.44L1340 89z"/><path d="M1139-120h-84c-2.76 0-5 2.24-5 5v30c0 2.76-2.24 5-5 5h-82.04" stroke="#000" stroke-width="2" fill="none"/><path d="M1140-119h-1v-2h1zM981.55-89.83L964.93-80l16.62 9.83-1.02 1.72L961-80l19.53-11.55z"/><g><use xlink:href="#n" transform="matrix(1,0,0,1,1129,-145.6) translate(0 14.4)"/></g><g><use xlink:href="#n" transform="matrix(1,0,0,1,961,-76) translate(0 14.4)"/></g><path d="M1139-40h-84c-2.76 0-5 2.24-5 5v206c0 2.76-2.24 5-5 5h-82.04" stroke="#000" stroke-width="2" fill="none"/><path d="M1140-39h-1v-2h1zM981.55 166.17L964.93 176l16.62 9.83-1.02 1.72L961 176l19.53-11.55z"/><g><use xlink:href="#n" transform="matrix(1,0,0,1,1129,-65.60000000000001) translate(0 14.4)"/></g><g><use xlink:href="#n" transform="matrix(1,0,0,1,960.0000000000001,180) translate(0 14.4)"/></g><defs><path d="M194 0L95-120 63-95V0H30v-248h33v124l119-124h40L117-140 236 0h-42" id="G"/><path d="M24 0v-261h32V0H24" id="H"/><path d="M141-36C126-15 110 5 73 4 37 3 15-17 15-53c-1-64 63-63 125-63 3-35-9-54-41-54-24 1-41 7-42 31l-33-3c5-37 33-52 76-52 45 0 72 20 72 64v82c-1 20 7 32 28 27v20c-31 9-61-2-59-35zM48-53c0 20 12 33 32 33 41-3 63-29 60-74-43 2-92-5-92 41" id="I"/><path d="M117-194c89-4 53 116 60 194h-32v-121c0-31-8-49-39-48C34-167 62-67 57 0H25l-1-190h30c1 10-1 24 2 32 11-22 29-35 61-36" id="J"/><path d="M59-47c-2 24 18 29 38 22v24C64 9 27 4 27-40v-127H5v-23h24l9-43h21v43h35v23H59v120" id="K"/><g id="a"><use transform="matrix(0.05,0,0,0.05,0,0)" xlink:href="#G"/><use transform="matrix(0.05,0,0,0.05,12,0)" xlink:href="#H"/><use transform="matrix(0.05,0,0,0.05,15.949999999999998,0)" xlink:href="#I"/><use transform="matrix(0.05,0,0,0.05,25.950000000000003,0)" xlink:href="#J"/><use transform="matrix(0.05,0,0,0.05,35.95,0)" xlink:href="#K"/></g><path d="M190 0L58-211 59 0H30v-248h39L202-35l-2-213h31V0h-41" id="L"/><path d="M210-169c-67 3-38 105-44 169h-31v-121c0-29-5-50-35-48C34-165 62-65 56 0H25l-1-190h30c1 10-1 24 2 32 10-44 99-50 107 0 11-21 27-35 58-36 85-2 47 119 55 194h-31v-121c0-29-5-49-35-48" id="M"/><g id="b"><use transform="matrix(0.05,0,0,0.05,0,0)" xlink:href="#L"/><use transform="matrix(0.05,0,0,0.05,12.950000000000001,0)" xlink:href="#I"/><use transform="matrix(0.05,0,0,0.05,22.950000000000003,0)" xlink:href="#I"/><use transform="matrix(0.05,0,0,0.05,32.95,0)" xlink:href="#M"/></g><path d="M205 0l-28-72H64L36 0H1l101-248h38L239 0h-34zm-38-99l-47-123c-12 45-31 82-46 123h93" id="N"/><path d="M85-194c31 0 48 13 60 33l-1-100h32l1 261h-30c-2-10 0-23-3-31C134-8 116 4 85 4 32 4 16-35 15-94c0-66 23-100 70-100zm9 24c-40 0-46 34-46 75 0 40 6 74 45 74 42 0 51-32 51-76 0-42-9-74-50-73" id="O"/><path d="M114-163C36-179 61-72 57 0H25l-1-190h30c1 12-1 29 2 39 6-27 23-49 58-41v29" id="P"/><path d="M100-194c63 0 86 42 84 106H49c0 40 14 67 53 68 26 1 43-12 49-29l28 8c-11 28-37 45-77 45C44 4 14-33 15-96c1-61 26-98 85-98zm52 81c6-60-76-77-97-28-3 7-6 17-6 28h103" id="Q"/><path d="M135-143c-3-34-86-38-87 0 15 53 115 12 119 90S17 21 10-45l28-5c4 36 97 45 98 0-10-56-113-15-118-90-4-57 82-63 122-42 12 7 21 19 24 35" id="R"/><g id="c"><use transform="matrix(0.05,0,0,0.05,0,0)" xlink:href="#N"/><use transform="matrix(0.05,0,0,0.05,12,0)" xlink:href="#O"/><use transform="matrix(0.05,0,0,0.05,22,0)" xlink:href="#P"/><use transform="matrix(0.05,0,0,0.05,27.950000000000003,0)" xlink:href="#Q"/><use transform="matrix(0.05,0,0,0.05,37.95,0)" xlink:href="#R"/></g><path d="M143 4C61 4 22-44 18-125c-5-107 100-154 193-111 17 8 29 25 37 43l-32 9c-13-25-37-40-76-40-61 0-88 39-88 99 0 61 29 100 91 101 35 0 62-11 79-27v-45h-74v-28h105v86C228-13 192 4 143 4" id="S"/><path d="M115-194c53 0 69 39 70 98 0 66-23 100-70 100C84 3 66-7 56-30L54 0H23l1-261h32v101c10-23 28-34 59-34zm-8 174c40 0 45-34 45-75 0-40-5-75-45-74-42 0-51 32-51 76 0 43 10 73 51 73" id="T"/><path d="M84 4C-5 8 30-112 23-190h32v120c0 31 7 50 39 49 72-2 45-101 50-169h31l1 190h-30c-1-10 1-25-2-33-11 22-28 36-60 37" id="U"/><path d="M24-231v-30h32v30H24zM24 0v-190h32V0H24" id="V"/><path d="M143 0L79-87 56-68V0H24v-261h32v163l83-92h37l-77 82L181 0h-38" id="W"/><g id="d"><use transform="matrix(0.05,0,0,0.05,0,0)" xlink:href="#S"/><use transform="matrix(0.05,0,0,0.05,14,0)" xlink:href="#Q"/><use transform="matrix(0.05,0,0,0.05,24,0)" xlink:href="#T"/><use transform="matrix(0.05,0,0,0.05,34,0)" xlink:href="#P"/><use transform="matrix(0.05,0,0,0.05,39.95,0)" xlink:href="#U"/><use transform="matrix(0.05,0,0,0.05,49.95,0)" xlink:href="#V"/><use transform="matrix(0.05,0,0,0.05,53.900000000000006,0)" xlink:href="#W"/><use transform="matrix(0.05,0,0,0.05,62.900000000000006,0)" xlink:href="#Q"/><use transform="matrix(0.05,0,0,0.05,72.9,0)" xlink:href="#P"/><use transform="matrix(0.05,0,0,0.05,78.85000000000001,0)" xlink:href="#R"/><use transform="matrix(0.05,0,0,0.05,87.85000000000001,0)" xlink:href="#J"/><use transform="matrix(0.05,0,0,0.05,97.85000000000001,0)" xlink:href="#I"/><use transform="matrix(0.05,0,0,0.05,107.85000000000001,0)" xlink:href="#I"/><use transform="matrix(0.05,0,0,0.05,117.85000000000001,0)" xlink:href="#M"/></g><path d="M266 0h-40l-56-210L115 0H75L2-248h35L96-30l15-64 43-154h32l59 218 59-218h35" id="X"/><path d="M96-169c-40 0-48 33-48 73s9 75 48 75c24 0 41-14 43-38l32 2c-6 37-31 61-74 61-59 0-76-41-82-99-10-93 101-131 147-64 4 7 5 14 7 22l-32 3c-4-21-16-35-41-35" id="Y"/><path d="M106-169C34-169 62-67 57 0H25v-261h32l-1 103c12-21 28-36 61-36 89 0 53 116 60 194h-32v-121c2-32-8-49-39-48" id="Z"/><path d="M206 0h-36l-40-164L89 0H53L-1-190h32L70-26l43-164h34l41 164 42-164h31" id="aa"/><path d="M100-194c62-1 85 37 85 99 1 63-27 99-86 99S16-35 15-95c0-66 28-99 85-99zM99-20c44 1 53-31 53-75 0-43-8-75-51-75s-53 32-53 75 10 74 51 75" id="ab"/><g id="e"><use transform="matrix(0.05,0,0,0.05,0,0)" xlink:href="#X"/><use transform="matrix(0.05,0,0,0.05,16.3,0)" xlink:href="#I"/><use transform="matrix(0.05,0,0,0.05,26.3,0)" xlink:href="#Y"/><use transform="matrix(0.05,0,0,0.05,35.3,0)" xlink:href="#Z"/><use transform="matrix(0.05,0,0,0.05,45.3,0)" xlink:href="#K"/><use transform="matrix(0.05,0,0,0.05,50.3,0)" xlink:href="#aa"/><use transform="matrix(0.05,0,0,0.05,63.25,0)" xlink:href="#ab"/><use transform="matrix(0.05,0,0,0.05,73.25,0)" xlink:href="#ab"/><use transform="matrix(0.05,0,0,0.05,83.25,0)" xlink:href="#P"/><use transform="matrix(0.05,0,0,0.05,89.2,0)" xlink:href="#O"/></g><path d="M233-177c-1 41-23 64-60 70L243 0h-38l-65-103H63V0H30v-248c88 3 205-21 203 71zM63-129c60-2 137 13 137-47 0-61-80-42-137-45v92" id="ac"/><path d="M9 0v-24l116-142H16v-24h144v24L44-24h123V0H9" id="ad"/><path d="M177-190C167-65 218 103 67 71c-23-6-38-20-44-43l32-5c15 47 100 32 89-28v-30C133-14 115 1 83 1 29 1 15-40 15-95c0-56 16-97 71-98 29-1 48 16 59 35 1-10 0-23 2-32h30zM94-22c36 0 50-32 50-73 0-42-14-75-50-75-39 0-46 34-46 75s6 73 46 73" id="ae"/><g id="f"><use transform="matrix(0.05,0,0,0.05,0,0)" xlink:href="#ac"/><use transform="matrix(0.05,0,0,0.05,12.950000000000001,0)" xlink:href="#Q"/><use transform="matrix(0.05,0,0,0.05,22.950000000000003,0)" xlink:href="#V"/><use transform="matrix(0.05,0,0,0.05,26.900000000000002,0)" xlink:href="#ad"/><use transform="matrix(0.05,0,0,0.05,35.900000000000006,0)" xlink:href="#V"/><use transform="matrix(0.05,0,0,0.05,39.85000000000001,0)" xlink:href="#ae"/><use transform="matrix(0.05,0,0,0.05,49.85000000000001,0)" xlink:href="#Q"/><use transform="matrix(0.05,0,0,0.05,59.85,0)" xlink:href="#P"/></g><path d="M160-131c35 5 61 23 61 61C221 17 115-2 30 0v-248c76 3 177-17 177 60 0 33-19 50-47 57zm-97-11c50-1 110 9 110-42 0-47-63-36-110-37v79zm0 115c55-2 124 14 124-45 0-56-70-42-124-44v89" id="af"/><g id="g"><use transform="matrix(0.05,0,0,0.05,0,0)" xlink:href="#af"/><use transform="matrix(0.05,0,0,0.05,12,0)" xlink:href="#Q"/><use transform="matrix(0.05,0,0,0.05,22,0)" xlink:href="#R"/><use transform="matrix(0.05,0,0,0.05,31,0)" xlink:href="#K"/><use transform="matrix(0.05,0,0,0.05,36,0)" xlink:href="#Q"/><use transform="matrix(0.05,0,0,0.05,46,0)" xlink:href="#M"/><use transform="matrix(0.05,0,0,0.05,60.95,0)" xlink:href="#M"/><use transform="matrix(0.05,0,0,0.05,75.9,0)" xlink:href="#V"/><use transform="matrix(0.05,0,0,0.05,79.85000000000001,0)" xlink:href="#J"/><use transform="matrix(0.05,0,0,0.05,89.85000000000001,0)" xlink:href="#ae"/></g><g id="h"><use transform="matrix(0.05,0,0,0.05,0,0)" xlink:href="#af"/><use transform="matrix(0.05,0,0,0.05,12,0)" xlink:href="#Q"/><use transform="matrix(0.05,0,0,0.05,22,0)" xlink:href="#ab"/><use transform="matrix(0.05,0,0,0.05,32,0)" xlink:href="#ab"/><use transform="matrix(0.05,0,0,0.05,42,0)" xlink:href="#P"/><use transform="matrix(0.05,0,0,0.05,47.95,0)" xlink:href="#O"/><use transform="matrix(0.05,0,0,0.05,57.95,0)" xlink:href="#Q"/><use transform="matrix(0.05,0,0,0.05,67.95,0)" xlink:href="#H"/><use transform="matrix(0.05,0,0,0.05,71.9,0)" xlink:href="#V"/><use transform="matrix(0.05,0,0,0.05,75.85000000000001,0)" xlink:href="#J"/><use transform="matrix(0.05,0,0,0.05,85.85000000000001,0)" xlink:href="#ae"/></g><path d="M212-179c-10-28-35-45-73-45-59 0-87 40-87 99 0 60 29 101 89 101 43 0 62-24 78-52l27 14C228-24 195 4 139 4 59 4 22-46 18-125c-6-104 99-153 187-111 19 9 31 26 39 46" id="ag"/><path d="M101-234c-31-9-42 10-38 44h38v23H63V0H32v-167H5v-23h27c-7-52 17-82 69-68v24" id="ah"/><g id="i"><use transform="matrix(0.05,0,0,0.05,0,0)" xlink:href="#ag"/><use transform="matrix(0.05,0,0,0.05,12.950000000000001,0)" xlink:href="#Z"/><use transform="matrix(0.05,0,0,0.05,22.950000000000003,0)" xlink:href="#I"/><use transform="matrix(0.05,0,0,0.05,32.95,0)" xlink:href="#U"/><use transform="matrix(0.05,0,0,0.05,42.95,0)" xlink:href="#ah"/><use transform="matrix(0.05,0,0,0.05,47.6,0)" xlink:href="#ah"/><use transform="matrix(0.05,0,0,0.05,52.6,0)" xlink:href="#Q"/><use transform="matrix(0.05,0,0,0.05,62.6,0)" xlink:href="#U"/><use transform="matrix(0.05,0,0,0.05,72.6,0)" xlink:href="#P"/></g><g id="j"><use transform="matrix(0.05,0,0,0.05,0,0)" xlink:href="#af"/><use transform="matrix(0.05,0,0,0.05,12,0)" xlink:href="#Q"/><use transform="matrix(0.05,0,0,0.05,22,0)" xlink:href="#ab"/><use transform="matrix(0.05,0,0,0.05,32,0)" xlink:href="#ab"/><use transform="matrix(0.05,0,0,0.05,42,0)" xlink:href="#P"/><use transform="matrix(0.05,0,0,0.05,47.95,0)" xlink:href="#O"/><use transform="matrix(0.05,0,0,0.05,57.95,0)" xlink:href="#Q"/><use transform="matrix(0.05,0,0,0.05,67.95,0)" xlink:href="#H"/><use transform="matrix(0.05,0,0,0.05,71.9,0)" xlink:href="#V"/><use transform="matrix(0.05,0,0,0.05,75.85000000000001,0)" xlink:href="#J"/><use transform="matrix(0.05,0,0,0.05,85.85000000000001,0)" xlink:href="#ae"/></g><path d="M108 0H70L1-190h34L89-25l56-165h34" id="ai"/><g id="l"><use transform="matrix(0.05,0,0,0.05,0,0)" xlink:href="#ac"/><use transform="matrix(0.05,0,0,0.05,12.950000000000001,0)" xlink:href="#Q"/><use transform="matrix(0.05,0,0,0.05,22.950000000000003,0)" xlink:href="#R"/><use transform="matrix(0.05,0,0,0.05,31.950000000000003,0)" xlink:href="#Q"/><use transform="matrix(0.05,0,0,0.05,41.95,0)" xlink:href="#P"/><use transform="matrix(0.05,0,0,0.05,47.900000000000006,0)" xlink:href="#ai"/><use transform="matrix(0.05,0,0,0.05,56.900000000000006,0)" xlink:href="#Q"/><use transform="matrix(0.05,0,0,0.05,66.9,0)" xlink:href="#P"/><use transform="matrix(0.05,0,0,0.05,72.85000000000001,0)" xlink:href="#V"/><use transform="matrix(0.05,0,0,0.05,76.80000000000001,0)" xlink:href="#J"/><use transform="matrix(0.05,0,0,0.05,86.80000000000001,0)" xlink:href="#ae"/></g><g id="m"><use transform="matrix(0.05,0,0,0.05,0,0)" xlink:href="#ac"/><use transform="matrix(0.05,0,0,0.05,12.950000000000001,0)" xlink:href="#Q"/><use transform="matrix(0.05,0,0,0.05,22.950000000000003,0)" xlink:href="#R"/><use transform="matrix(0.05,0,0,0.05,31.950000000000003,0)" xlink:href="#Q"/><use transform="matrix(0.05,0,0,0.05,41.95,0)" xlink:href="#P"/><use transform="matrix(0.05,0,0,0.05,47.900000000000006,0)" xlink:href="#ai"/><use transform="matrix(0.05,0,0,0.05,56.900000000000006,0)" xlink:href="#Q"/><use transform="matrix(0.05,0,0,0.05,66.9,0)" xlink:href="#P"/><use transform="matrix(0.05,0,0,0.05,72.85000000000001,0)" xlink:href="#V"/><use transform="matrix(0.05,0,0,0.05,76.80000000000001,0)" xlink:href="#J"/><use transform="matrix(0.05,0,0,0.05,86.80000000000001,0)" xlink:href="#ae"/><use transform="matrix(0.05,0,0,0.05,96.80000000000001,0)" xlink:href="#R"/><use transform="matrix(0.05,0,0,0.05,105.80000000000001,0)" xlink:href="#J"/><use transform="matrix(0.05,0,0,0.05,115.80000000000001,0)" xlink:href="#U"/><use transform="matrix(0.05,0,0,0.05,125.80000000000001,0)" xlink:href="#M"/><use transform="matrix(0.05,0,0,0.05,140.75,0)" xlink:href="#M"/><use transform="matrix(0.05,0,0,0.05,155.7,0)" xlink:href="#Q"/><use transform="matrix(0.05,0,0,0.05,165.7,0)" xlink:href="#P"/></g><path d="M27 0v-27h64v-190l-56 39v-29l58-41h29v221h61V0H27" id="aj"/><use transform="matrix(0.05,0,0,0.05,0,0)" xlink:href="#aj" id="n"/><path d="M101-251c68 0 85 55 85 127S166 4 100 4C33 4 14-52 14-124c0-73 17-127 87-127zm-1 229c47 0 54-49 54-102s-4-102-53-102c-51 0-55 48-55 102 0 53 5 102 54 102" id="ak"/><path d="M33 0v-38h34V0H33" id="al"/><g id="o"><use transform="matrix(0.05,0,0,0.05,0,0)" xlink:href="#ak"/><use transform="matrix(0.05,0,0,0.05,10,0)" xlink:href="#al"/><use transform="matrix(0.05,0,0,0.05,15,0)" xlink:href="#al"/><use transform="matrix(0.05,0,0,0.05,20,0)" xlink:href="#aj"/></g><g id="p"><use transform="matrix(0.05,0,0,0.05,0,0)" xlink:href="#ac"/><use transform="matrix(0.05,0,0,0.05,12.950000000000001,0)" xlink:href="#V"/><use transform="matrix(0.05,0,0,0.05,16.900000000000002,0)" xlink:href="#K"/></g><g id="q"><use transform="matrix(0.05,0,0,0.05,0,0)" xlink:href="#ac"/><use transform="matrix(0.05,0,0,0.05,12.950000000000001,0)" xlink:href="#V"/><use transform="matrix(0.05,0,0,0.05,16.900000000000002,0)" xlink:href="#K"/><use transform="matrix(0.05,0,0,0.05,21.900000000000002,0)" xlink:href="#J"/><use transform="matrix(0.05,0,0,0.05,31.900000000000002,0)" xlink:href="#U"/><use transform="matrix(0.05,0,0,0.05,41.900000000000006,0)" xlink:href="#M"/><use transform="matrix(0.05,0,0,0.05,56.85,0)" xlink:href="#M"/><use transform="matrix(0.05,0,0,0.05,71.80000000000001,0)" xlink:href="#Q"/><use transform="matrix(0.05,0,0,0.05,81.80000000000001,0)" xlink:href="#P"/></g><g id="r"><use transform="matrix(0.05,0,0,0.05,0,0)" xlink:href="#N"/><use transform="matrix(0.05,0,0,0.05,12,0)" xlink:href="#U"/><use transform="matrix(0.05,0,0,0.05,22,0)" xlink:href="#K"/><use transform="matrix(0.05,0,0,0.05,27,0)" xlink:href="#ab"/></g><path d="M240 0l2-218c-23 76-54 145-80 218h-23L58-218 59 0H30v-248h44l77 211c21-75 51-140 76-211h43V0h-30" id="am"/><g id="s"><use transform="matrix(0.05,0,0,0.05,0,0)" xlink:href="#am"/><use transform="matrix(0.05,0,0,0.05,14.950000000000001,0)" xlink:href="#Q"/><use transform="matrix(0.05,0,0,0.05,24.950000000000003,0)" xlink:href="#P"/><use transform="matrix(0.05,0,0,0.05,30.900000000000002,0)" xlink:href="#W"/></g><g id="t"><use transform="matrix(0.05,0,0,0.05,0,0)" xlink:href="#am"/><use transform="matrix(0.05,0,0,0.05,14.950000000000001,0)" xlink:href="#ab"/><use transform="matrix(0.05,0,0,0.05,24.950000000000003,0)" xlink:href="#O"/><use transform="matrix(0.05,0,0,0.05,34.95,0)" xlink:href="#Q"/><use transform="matrix(0.05,0,0,0.05,44.95,0)" xlink:href="#H"/></g><g id="u"><use transform="matrix(0.05,0,0,0.05,0,0)" xlink:href="#G"/><use transform="matrix(0.05,0,0,0.05,12,0)" xlink:href="#Q"/><use transform="matrix(0.05,0,0,0.05,22,0)" xlink:href="#J"/><use transform="matrix(0.05,0,0,0.05,32,0)" xlink:href="#K"/><use transform="matrix(0.05,0,0,0.05,37,0)" xlink:href="#Q"/><use transform="matrix(0.05,0,0,0.05,47,0)" xlink:href="#W"/><use transform="matrix(0.05,0,0,0.05,56,0)" xlink:href="#Q"/><use transform="matrix(0.05,0,0,0.05,66,0)" xlink:href="#J"/></g><g id="v"><use transform="matrix(0.05,0,0,0.05,0,0)" xlink:href="#af"/><use transform="matrix(0.05,0,0,0.05,12,0)" xlink:href="#Q"/><use transform="matrix(0.05,0,0,0.05,22,0)" xlink:href="#K"/><use transform="matrix(0.05,0,0,0.05,27,0)" xlink:href="#I"/><use transform="matrix(0.05,0,0,0.05,37,0)" xlink:href="#H"/><use transform="matrix(0.05,0,0,0.05,40.95,0)" xlink:href="#V"/><use transform="matrix(0.05,0,0,0.05,44.900000000000006,0)" xlink:href="#J"/><use transform="matrix(0.05,0,0,0.05,54.900000000000006,0)" xlink:href="#ae"/></g><g id="w"><use transform="matrix(0.05,0,0,0.05,0,0)" xlink:href="#af"/><use transform="matrix(0.05,0,0,0.05,12,0)" xlink:href="#Q"/><use transform="matrix(0.05,0,0,0.05,22,0)" xlink:href="#O"/><use transform="matrix(0.05,0,0,0.05,32,0)" xlink:href="#P"/><use transform="matrix(0.05,0,0,0.05,37.95,0)" xlink:href="#I"/><use transform="matrix(0.05,0,0,0.05,47.95,0)" xlink:href="#ae"/></g><path d="M30-248c118-7 216 8 213 122C240-48 200 0 122 0H30v-248zM63-27c89 8 146-16 146-99s-60-101-146-95v194" id="an"/><g id="x"><use transform="matrix(0.05,0,0,0.05,0,0)" xlink:href="#V"/><use transform="matrix(0.05,0,0,0.05,3.95,0)" xlink:href="#an"/><use transform="matrix(0.05,0,0,0.05,16.900000000000002,0)" xlink:href="#Q"/><use transform="matrix(0.05,0,0,0.05,26.900000000000002,0)" xlink:href="#I"/><use transform="matrix(0.05,0,0,0.05,36.900000000000006,0)" xlink:href="#H"/></g><g id="y"><use transform="matrix(0.05,0,0,0.05,0,0)" xlink:href="#af"/><use transform="matrix(0.05,0,0,0.05,12,0)" xlink:href="#I"/><use transform="matrix(0.05,0,0,0.05,22,0)" xlink:href="#J"/><use transform="matrix(0.05,0,0,0.05,32,0)" xlink:href="#W"/></g><g id="z"><use transform="matrix(0.05,0,0,0.05,0,0)" xlink:href="#ac"/><use transform="matrix(0.05,0,0,0.05,12.950000000000001,0)" xlink:href="#Q"/><use transform="matrix(0.05,0,0,0.05,22.950000000000003,0)" xlink:href="#W"/><use transform="matrix(0.05,0,0,0.05,31.950000000000003,0)" xlink:href="#Q"/><use transform="matrix(0.05,0,0,0.05,41.95,0)" xlink:href="#J"/><use transform="matrix(0.05,0,0,0.05,51.95,0)" xlink:href="#V"/><use transform="matrix(0.05,0,0,0.05,55.900000000000006,0)" xlink:href="#J"/><use transform="matrix(0.05,0,0,0.05,65.9,0)" xlink:href="#ae"/><use transform="matrix(0.05,0,0,0.05,75.9,0)" xlink:href="#J"/><use transform="matrix(0.05,0,0,0.05,85.9,0)" xlink:href="#U"/><use transform="matrix(0.05,0,0,0.05,95.9,0)" xlink:href="#M"/><use transform="matrix(0.05,0,0,0.05,110.85000000000001,0)" xlink:href="#M"/><use transform="matrix(0.05,0,0,0.05,125.80000000000001,0)" xlink:href="#Q"/><use transform="matrix(0.05,0,0,0.05,135.8,0)" xlink:href="#P"/></g><path d="M30-248c87 1 191-15 191 75 0 78-77 80-158 76V0H30v-248zm33 125c57 0 124 11 124-50 0-59-68-47-124-48v98" id="ao"/><path d="M179-190L93 31C79 59 56 82 12 73V49c39 6 53-20 64-50L1-190h34L92-34l54-156h33" id="ap"/><path d="M115-194c55 1 70 41 70 98S169 2 115 4C84 4 66-9 55-30l1 105H24l-1-265h31l2 30c10-21 28-34 59-34zm-8 174c40 0 45-34 45-75s-6-73-45-74c-42 0-51 32-51 76 0 43 10 73 51 73" id="aq"/><g id="A"><use transform="matrix(0.05,0,0,0.05,0,0)" xlink:href="#ao"/><use transform="matrix(0.05,0,0,0.05,12,0)" xlink:href="#I"/><use transform="matrix(0.05,0,0,0.05,22,0)" xlink:href="#ap"/><use transform="matrix(0.05,0,0,0.05,31,0)" xlink:href="#aq"/><use transform="matrix(0.05,0,0,0.05,41,0)" xlink:href="#I"/><use transform="matrix(0.05,0,0,0.05,51,0)" xlink:href="#H"/></g><g id="B"><use transform="matrix(0.05,0,0,0.05,0,0)" xlink:href="#ag"/><use transform="matrix(0.05,0,0,0.05,12.950000000000001,0)" xlink:href="#P"/><use transform="matrix(0.05,0,0,0.05,18.900000000000002,0)" xlink:href="#Q"/><use transform="matrix(0.05,0,0,0.05,28.900000000000002,0)" xlink:href="#O"/><use transform="matrix(0.05,0,0,0.05,38.900000000000006,0)" xlink:href="#V"/><use transform="matrix(0.05,0,0,0.05,42.85000000000001,0)" xlink:href="#K"/><use transform="matrix(0.05,0,0,0.05,47.85000000000001,0)" xlink:href="#Y"/><use transform="matrix(0.05,0,0,0.05,56.85,0)" xlink:href="#I"/><use transform="matrix(0.05,0,0,0.05,66.85000000000001,0)" xlink:href="#P"/><use transform="matrix(0.05,0,0,0.05,72.80000000000001,0)" xlink:href="#O"/></g><g id="C"><use transform="matrix(0.05,0,0,0.05,0,0)" xlink:href="#L"/><use transform="matrix(0.05,0,0,0.05,12.950000000000001,0)" xlink:href="#U"/><use transform="matrix(0.05,0,0,0.05,22.950000000000003,0)" xlink:href="#M"/><use transform="matrix(0.05,0,0,0.05,37.900000000000006,0)" xlink:href="#M"/><use transform="matrix(0.05,0,0,0.05,52.85,0)" xlink:href="#Q"/><use transform="matrix(0.05,0,0,0.05,62.85,0)" xlink:href="#P"/></g><path d="M127-220V0H93v-220H8v-28h204v28h-85" id="ar"/><g id="D"><use transform="matrix(0.05,0,0,0.05,0,0)" xlink:href="#ar"/><use transform="matrix(0.05,0,0,0.05,9.950000000000001,0)" xlink:href="#ap"/><use transform="matrix(0.05,0,0,0.05,18.950000000000003,0)" xlink:href="#aq"/><use transform="matrix(0.05,0,0,0.05,28.950000000000003,0)" xlink:href="#Q"/></g><path d="M137 0h-34L2-248h35l83 218 83-218h36" id="as"/><g id="E"><use transform="matrix(0.05,0,0,0.05,0,0)" xlink:href="#as"/><use transform="matrix(0.05,0,0,0.05,11,0)" xlink:href="#Q"/><use transform="matrix(0.05,0,0,0.05,21,0)" xlink:href="#P"/><use transform="matrix(0.05,0,0,0.05,26.950000000000003,0)" xlink:href="#ai"/><use transform="matrix(0.05,0,0,0.05,35.95,0)" xlink:href="#I"/><use transform="matrix(0.05,0,0,0.05,45.95,0)" xlink:href="#H"/><use transform="matrix(0.05,0,0,0.05,49.900000000000006,0)" xlink:href="#O"/><use transform="matrix(0.05,0,0,0.05,59.900000000000006,0)" xlink:href="#I"/><use transform="matrix(0.05,0,0,0.05,69.9,0)" xlink:href="#K"/><use transform="matrix(0.05,0,0,0.05,74.9,0)" xlink:href="#U"/><use transform="matrix(0.05,0,0,0.05,84.9,0)" xlink:href="#M"/></g><g id="F"><use transform="matrix(0.05,0,0,0.05,0,0)" xlink:href="#ar"/><use transform="matrix(0.05,0,0,0.05,8.950000000000001,0)" xlink:href="#ab"/><use transform="matrix(0.05,0,0,0.05,18.950000000000003,0)" xlink:href="#Q"/><use transform="matrix(0.05,0,0,0.05,28.950000000000003,0)" xlink:href="#H"/><use transform="matrix(0.05,0,0,0.05,32.900000000000006,0)" xlink:href="#V"/><use transform="matrix(0.05,0,0,0.05,36.85000000000001,0)" xlink:href="#Y"/><use transform="matrix(0.05,0,0,0.05,45.85000000000001,0)" xlink:href="#Z"/><use transform="matrix(0.05,0,0,0.05,55.85,0)" xlink:href="#K"/><use transform="matrix(0.05,0,0,0.05,60.85,0)" xlink:href="#V"/><use transform="matrix(0.05,0,0,0.05,64.80000000000001,0)" xlink:href="#J"/><use transform="matrix(0.05,0,0,0.05,74.80000000000001,0)" xlink:href="#ae"/></g></defs></g></svg>