<svg xmlns="http://www.w3.org/2000/svg" xmlns:xlink="http://www.w3.org/1999/xlink" xmlns:lucid="lucid" width="1580" height="928"><g transform="translate(180 112)" lucid:page-tab-id="0_0"><path d="M-1696-1296h3456v2656h-3456z" fill="#fff"/><path d="M160 140h200v136H160z" fill="#fff"/><path d="M160 140h200v136H160zM160 180h200" stroke="#000" stroke-width="2" fill="none"/><use xlink:href="#a" transform="matrix(1,0,0,1,170,140) translate(57.099999999999994 23.6)"/><use xlink:href="#b" transform="matrix(1,0,0,1,165,182.5) translate(0 17.1)"/><use xlink:href="#c" transform="matrix(1,0,0,1,165,214.5) translate(0 17.1)"/><use xlink:href="#d" transform="matrix(1,0,0,1,165,246.5) translate(0 17.1)"/><path d="M1180-68h200V68h-200z" fill="#fff"/><path d="M1180-68h200V68h-200zM1180-28h200" stroke="#000" stroke-width="2" fill="none"/><use xlink:href="#e" transform="matrix(1,0,0,1,1190,-68) translate(41.599999999999994 23.6)"/><use xlink:href="#f" transform="matrix(1,0,0,1,1185,-25.5) translate(0 17.1)"/><path d="M640-92l80 80-80 80-80-80z" stroke="#000" stroke-width="2" fill="#fff"/><use xlink:href="#g" transform="matrix(1,0,0,1,565,-87) translate(50.525 78.60000000000001)"/><path d="M260 139V-12h298.6" stroke="#000" stroke-width="2" fill="none"/><path d="M261 140h-2v-1h2zM560-12l1 1h-2.4v-2h2.4z"/><path d="M721.4-12H1179" stroke="#000" stroke-width="2" fill="none"/><path d="M721.4-11H719l1-1-1-1h2.4z"/><path fill="#fff"/><path d="M1170-2h-2v-20h2z"/><path d="M1159-12l-.5 3.16-1.43 2.75-2.16 2.17-2.74 1.42-3.16.5-3.16-.5-2.75-1.43-2.17-2.16-1.42-2.74-.5-3.16.34-2.6 1-2.4 1.6-2.07 2.07-1.6 2.4-1 2.6-.33 3.16.5 2.75 1.43 2.17 2.16 1.42 2.74.5 3.16z" fill="#fff"/><path d="M1152.48-22.45l3.02 1.56 2.4 2.4 1.55 3.02.54 3.32-1 .16 1 .16-.55 3.32-1.56 3.02-2.4 2.4-3.02 1.55L1149-1l-3.48-.55-3.02-1.56-2.4-2.4-1.55-3.02L1138-12l.37-2.86 1.1-2.64 1.75-2.28 2.28-1.76 2.64-1.1L1149-23zm-5.8 1.76l-2.17.9-1.86 1.44-1.43 1.87-.9 2.17-.3 2.32.47 2.84 1.28 2.47 1.94 1.95 2.46 1.28L1149-3l2.84-.47 2.47-1.28 1.95-1.94 1.28-2.46.46-2.84-.47-2.84-1.28-2.47-1.94-1.95-2.46-1.28L1149-21z"/><path d="M260 316l80 80-80 80-80-80z" stroke="#000" stroke-width="2" fill="#fff"/><use xlink:href="#h" transform="matrix(1,0,0,1,185,321) translate(31.549999999999997 78.60000000000001)"/><path d="M-160 340H40v136h-200z" fill="#fff"/><path d="M-160 340H40v136h-200zM-160 380H40" stroke="#000" stroke-width="2" fill="none"/><use xlink:href="#i" transform="matrix(1,0,0,1,-150,340) translate(79.05 23.6)"/><use xlink:href="#j" transform="matrix(1,0,0,1,-155,382.5) translate(0 17.1)"/><path d="M260 277v37.6" stroke="#000" stroke-width="2" fill="none"/><path d="M261 277h-2v-1h2zM261 317l-1-1-1 1v-2.4h2z"/><path d="M178.6 396h-68.8v-.12H41" stroke="#000" stroke-width="2" fill="none"/><path d="M180 396l1 1h-2.4v-2h2.4z"/><path fill="#fff"/><path d="M52 405.88h-2v-20h2z"/><path d="M81 395.88l-.5 3.16-1.43 2.75-2.16 2.15-2.74 1.42-3.16.5-3.16-.5-2.75-1.42-2.17-2.16-1.42-2.76-.5-3.16.5-3.16 1.43-2.75 2.16-2.16 2.74-1.4 3.16-.52 3.16.5 2.75 1.43 2.17 2.17 1.42 2.75.5 3.16z" fill="#fff"/><path d="M74.48 385.43L77.5 387l2.4 2.38 1.55 3.02.54 3.32-1 .16 1 .16-.55 3.32-1.56 3.02-2.4 2.4-3.02 1.55-3.48.56-3.48-.57-3.02-1.56-2.4-2.4-1.55-3-.56-3.5.55-3.47 1.56-3.02 2.4-2.4 3.02-1.55 3.48-.56zm-6.32 1.92l-2.47 1.28-1.95 1.94-1.28 2.47-.46 2.84.47 2.84 1.28 2.47 1.94 1.93 2.46 1.28 2.84.47 2.84-.46 2.47-1.27 1.95-1.94 1.28-2.48.46-2.84-.47-2.84-1.28-2.47-1.94-1.94-2.46-1.28-2.84-.46z"/><path d="M580 660h200v136H580z" fill="#fff"/><path d="M580 660h200v136H580zM580 700h200" stroke="#000" stroke-width="2" fill="none"/><use xlink:href="#k" transform="matrix(1,0,0,1,590,660) translate(50.725 23.6)"/><use xlink:href="#b" transform="matrix(1,0,0,1,585,702.5) translate(0 17.1)"/><use xlink:href="#c" transform="matrix(1,0,0,1,585,734.5) translate(0 17.1)"/><use xlink:href="#d" transform="matrix(1,0,0,1,585,766.5) translate(0 17.1)"/><path d="M1280 380l80 80-80 80-80-80z" stroke="#000" stroke-width="2" fill="#fff"/><use xlink:href="#l" transform="matrix(1,0,0,1,1205,385) translate(38.025 78.60000000000001)"/><path d="M781 716h499V541.4" stroke="#000" stroke-width="2" fill="none"/><path d="M781 717h-1v-2h1zM1281 541.4h-2V539l1 1 1-1z"/><path d="M1280 378.6V69" stroke="#000" stroke-width="2" fill="none"/><path d="M1281 381l-1-1-1 1v-2.4h2zM1290.9 69.9L1280 91.67l-10.9-21.8 1.8-.88 9.1 18.2 9.1-18.2z"/><path d="M1290 99.45l-.5 3.16-1.43 2.75-2.16 2.17-2.74 1.42-3.16.5-3.16-.5-2.75-1.42-2.17-2.17-1.42-2.74-.5-3.15.5-3.16 1.43-2.76 2.16-2.16 2.74-1.42 3.16-.5 3.16.5 2.75 1.42 2.17 2.16 1.42 2.75.5 3.15z" fill="#fff"/><path d="M1283.48 89l3.02 1.56 2.4 2.38 1.55 3.03.54 3.32-1 .15 1 .16-.55 3.33-1.56 3.02-2.4 2.38-3.02 1.57-3.48.56-3.48-.56-3.02-1.57-2.4-2.38-1.55-3.02-.56-3.48.55-3.48 1.56-3.03 2.4-2.38 3.02-1.56 3.48-.57zm-6.32 1.92l-2.47 1.27-1.95 1.94-1.28 2.46-.46 2.85.47 2.84 1.28 2.46 1.94 1.94 2.46 1.28 2.84.45 2.84-.45 2.47-1.28 1.95-1.94 1.28-2.47.46-2.85-.47-2.85-1.28-2.46-1.94-1.95-2.46-1.28-2.84-.46z"/><path d="M579 716H21.4" stroke="#000" stroke-width="2" fill="none"/><path d="M580 717h-1v-2h1zM21.4 717H19l1-1-1-1h2.4z"/><path d="M720 140h200v136H720z" fill="#fff"/><path d="M720 140h200v136H720zM720 180h200" stroke="#000" stroke-width="2" fill="none"/><use xlink:href="#m" transform="matrix(1,0,0,1,730,140) translate(57.55 23.6)"/><use xlink:href="#n" transform="matrix(1,0,0,1,725,182.5) translate(0 17.1)"/><path d="M540 116l80 80-80 80-80-80z" stroke="#000" stroke-width="2" fill="#fff"/><use xlink:href="#o" transform="matrix(1,0,0,1,465,121) translate(44.575 78.60000000000001)"/><path d="M680 380l80 80-80 80-80-80z" stroke="#000" stroke-width="2" fill="#fff"/><use xlink:href="#p" transform="matrix(1,0,0,1,605,385) translate(38.5 78.60000000000001)"/><path d="M361 195.88h48.8v.12h48.8" stroke="#000" stroke-width="2" fill="none"/><path d="M361 196.88h-1v-2h1zM460 196l1 1h-2.4v-2h2.4z"/><path d="M621.4 196h48.8v-.12H719" stroke="#000" stroke-width="2" fill="none"/><path d="M621.4 197H619l1-1-1-1h2.4z"/><path fill="#fff"/><path d="M710 205.88h-2v-20h2z"/><path d="M699 195.88l-.5 3.16-1.43 2.75-2.16 2.15-2.74 1.42-3.16.5-3.16-.5-2.75-1.42-2.17-2.16-1.42-2.76-.5-3.16.5-3.16 1.43-2.75 2.16-2.16 2.74-1.4 3.16-.52 3.16.5 2.75 1.43 2.17 2.17 1.42 2.75.5 3.16z" fill="#fff"/><path d="M692.48 185.43l3.02 1.56 2.4 2.38 1.55 3.02.54 3.32-1 .16 1 .16-.55 3.32-1.56 3.02-2.4 2.4-3.02 1.55-3.48.56-3.48-.57-3.02-1.56-2.4-2.4-1.55-3-.56-3.5.55-3.47 1.56-3.02 2.4-2.4 3.02-1.55 3.48-.56zm-6.32 1.92l-2.47 1.28-1.95 1.94-1.28 2.47-.46 2.84.47 2.84 1.28 2.47 1.94 1.93 2.46 1.28 2.84.47 2.84-.46 2.47-1.27 1.95-1.94 1.28-2.48.46-2.84-.47-2.84-1.28-2.47-1.94-1.94-2.46-1.28-2.84-.46z"/><path d="M680 659V541.4" stroke="#000" stroke-width="2" fill="none"/><path d="M681 660h-2v-1h2zM681 541.4h-2V539l1 1 1-1z"/><path d="M680 378.6v-50.8h140V277" stroke="#000" stroke-width="2" fill="none"/><path d="M681 381l-1-1-1 1v-2.4h2zM830.9 277.9L820 299.67l-10.9-21.8 1.8-.88 9.1 18.2 9.1-18.2z"/><path d="M830 307.45l-.5 3.16-1.43 2.75-2.16 2.17-2.74 1.42-3.16.5-3.16-.5-2.75-1.42-2.17-2.17-1.42-2.74-.5-3.15.5-3.16 1.43-2.76 2.16-2.16 2.74-1.42 3.16-.5 3.16.5 2.75 1.42 2.17 2.16 1.42 2.75.5 3.15z" fill="#fff"/><path d="M823.48 297l3.02 1.56 2.4 2.38 1.55 3.03.54 3.32-1 .15 1 .16-.55 3.33-1.56 3.02-2.4 2.38-3.02 1.57-3.48.56-3.48-.56-3.02-1.57-2.4-2.38-1.55-3.02-.56-3.48.55-3.48 1.56-3.03 2.4-2.38 3.02-1.56 3.48-.57zm-6.32 1.92l-2.47 1.27-1.95 1.94-1.28 2.46-.46 2.85.47 2.84 1.28 2.46 1.94 1.94 2.46 1.28 2.84.45 2.84-.45 2.47-1.28 1.95-1.94 1.28-2.47.46-2.85-.47-2.85-1.28-2.46-1.94-1.95-2.46-1.28-2.84-.46z"/><path d="M-60 636l80 80-80 80-80-80z" stroke="#000" stroke-width="2" fill="#fff"/><use xlink:href="#h" transform="matrix(1,0,0,1,-135,641) translate(31.549999999999997 78.60000000000001)"/><path d="M-60 634.6V477" stroke="#000" stroke-width="2" fill="none"/><path d="M-59 637l-1-1-1 1v-2.4h2z"/><path fill="#fff"/><path d="M-50 488h-20v-2h20z"/><path d="M-50 507l-.5 3.16-1.43 2.75-2.16 2.17-2.74 1.42-3.16.5-3.16-.5-2.75-1.43-2.17-2.16-1.42-2.74-.5-3.16.5-3.16 1.43-2.75 2.16-2.17 2.74-1.42 3.16-.5 3.16.5 2.75 1.43 2.17 2.16 1.42 2.74.5 3.16z" fill="#fff"/><path d="M-56.52 496.55l3.02 1.56 2.4 2.4 1.55 3.02.54 3.32-1 .16 1 .16-.55 3.32-1.56 3.02-2.4 2.4-3.02 1.55-3.48.56-3.48-.55-3.02-1.56-2.4-2.4-1.55-3.02L-71 507l.55-3.48 1.56-3.02 2.4-2.4 3.02-1.55L-60 496zm-6.32 1.92l-2.47 1.28-1.95 1.94-1.28 2.46L-69 507l.47 2.84 1.28 2.47 1.94 1.95 2.46 1.28 2.84.46 2.84-.47 2.47-1.28 1.95-1.94 1.28-2.46.46-2.84-.47-2.84-1.28-2.47-1.94-1.95-2.46-1.28L-60 498z"/><defs><path d="M233-177c-1 41-23 64-60 70L243 0h-38l-65-103H63V0H30v-248c88 3 205-21 203 71zM63-129c60-2 137 13 137-47 0-61-80-42-137-45v92" id="q"/><path d="M100-194c63 0 86 42 84 106H49c0 40 14 67 53 68 26 1 43-12 49-29l28 8c-11 28-37 45-77 45C44 4 14-33 15-96c1-61 26-98 85-98zm52 81c6-60-76-77-97-28-3 7-6 17-6 28h103" id="r"/><path d="M24-231v-30h32v30H24zM24 0v-190h32V0H24" id="s"/><path d="M9 0v-24l116-142H16v-24h144v24L44-24h123V0H9" id="t"/><path d="M177-190C167-65 218 103 67 71c-23-6-38-20-44-43l32-5c15 47 100 32 89-28v-30C133-14 115 1 83 1 29 1 15-40 15-95c0-56 16-97 71-98 29-1 48 16 59 35 1-10 0-23 2-32h30zM94-22c36 0 50-32 50-73 0-42-14-75-50-75-39 0-46 34-46 75s6 73 46 73" id="u"/><path d="M114-163C36-179 61-72 57 0H25l-1-190h30c1 12-1 29 2 39 6-27 23-49 58-41v29" id="v"/><g id="a"><use transform="matrix(0.05,0,0,0.05,0,0)" xlink:href="#q"/><use transform="matrix(0.05,0,0,0.05,12.950000000000001,0)" xlink:href="#r"/><use transform="matrix(0.05,0,0,0.05,22.950000000000003,0)" xlink:href="#s"/><use transform="matrix(0.05,0,0,0.05,26.900000000000002,0)" xlink:href="#t"/><use transform="matrix(0.05,0,0,0.05,35.900000000000006,0)" xlink:href="#s"/><use transform="matrix(0.05,0,0,0.05,39.85000000000001,0)" xlink:href="#u"/><use transform="matrix(0.05,0,0,0.05,49.85000000000001,0)" xlink:href="#r"/><use transform="matrix(0.05,0,0,0.05,59.85,0)" xlink:href="#v"/></g><path d="M190 0L58-211 59 0H30v-248h39L202-35l-2-213h31V0h-41" id="w"/><path d="M141-36C126-15 110 5 73 4 37 3 15-17 15-53c-1-64 63-63 125-63 3-35-9-54-41-54-24 1-41 7-42 31l-33-3c5-37 33-52 76-52 45 0 72 20 72 64v82c-1 20 7 32 28 27v20c-31 9-61-2-59-35zM48-53c0 20 12 33 32 33 41-3 63-29 60-74-43 2-92-5-92 41" id="x"/><path d="M210-169c-67 3-38 105-44 169h-31v-121c0-29-5-50-35-48C34-165 62-65 56 0H25l-1-190h30c1 10-1 24 2 32 10-44 99-50 107 0 11-21 27-35 58-36 85-2 47 119 55 194h-31v-121c0-29-5-49-35-48" id="y"/><g id="b"><use transform="matrix(0.05,0,0,0.05,0,0)" xlink:href="#w"/><use transform="matrix(0.05,0,0,0.05,12.950000000000001,0)" xlink:href="#x"/><use transform="matrix(0.05,0,0,0.05,22.950000000000003,0)" xlink:href="#x"/><use transform="matrix(0.05,0,0,0.05,32.95,0)" xlink:href="#y"/></g><path d="M160-131c35 5 61 23 61 61C221 17 115-2 30 0v-248c76 3 177-17 177 60 0 33-19 50-47 57zm-97-11c50-1 110 9 110-42 0-47-63-36-110-37v79zm0 115c55-2 124 14 124-45 0-56-70-42-124-44v89" id="z"/><path d="M100-194c62-1 85 37 85 99 1 63-27 99-86 99S16-35 15-95c0-66 28-99 85-99zM99-20c44 1 53-31 53-75 0-43-8-75-51-75s-53 32-53 75 10 74 51 75" id="A"/><path d="M85-194c31 0 48 13 60 33l-1-100h32l1 261h-30c-2-10 0-23-3-31C134-8 116 4 85 4 32 4 16-35 15-94c0-66 23-100 70-100zm9 24c-40 0-46 34-46 75 0 40 6 74 45 74 42 0 51-32 51-76 0-42-9-74-50-73" id="B"/><path d="M24 0v-261h32V0H24" id="C"/><path d="M117-194c89-4 53 116 60 194h-32v-121c0-31-8-49-39-48C34-167 62-67 57 0H25l-1-190h30c1 10-1 24 2 32 11-22 29-35 61-36" id="D"/><g id="c"><use transform="matrix(0.05,0,0,0.05,0,0)" xlink:href="#z"/><use transform="matrix(0.05,0,0,0.05,12,0)" xlink:href="#r"/><use transform="matrix(0.05,0,0,0.05,22,0)" xlink:href="#A"/><use transform="matrix(0.05,0,0,0.05,32,0)" xlink:href="#A"/><use transform="matrix(0.05,0,0,0.05,42,0)" xlink:href="#v"/><use transform="matrix(0.05,0,0,0.05,47.95,0)" xlink:href="#B"/><use transform="matrix(0.05,0,0,0.05,57.95,0)" xlink:href="#r"/><use transform="matrix(0.05,0,0,0.05,67.95,0)" xlink:href="#C"/><use transform="matrix(0.05,0,0,0.05,71.9,0)" xlink:href="#s"/><use transform="matrix(0.05,0,0,0.05,75.85000000000001,0)" xlink:href="#D"/><use transform="matrix(0.05,0,0,0.05,85.85000000000001,0)" xlink:href="#u"/></g><path d="M143 4C61 4 22-44 18-125c-5-107 100-154 193-111 17 8 29 25 37 43l-32 9c-13-25-37-40-76-40-61 0-88 39-88 99 0 61 29 100 91 101 35 0 62-11 79-27v-45h-74v-28h105v86C228-13 192 4 143 4" id="E"/><path d="M115-194c53 0 69 39 70 98 0 66-23 100-70 100C84 3 66-7 56-30L54 0H23l1-261h32v101c10-23 28-34 59-34zm-8 174c40 0 45-34 45-75 0-40-5-75-45-74-42 0-51 32-51 76 0 43 10 73 51 73" id="F"/><path d="M84 4C-5 8 30-112 23-190h32v120c0 31 7 50 39 49 72-2 45-101 50-169h31l1 190h-30c-1-10 1-25-2-33-11 22-28 36-60 37" id="G"/><path d="M143 0L79-87 56-68V0H24v-261h32v163l83-92h37l-77 82L181 0h-38" id="H"/><path d="M135-143c-3-34-86-38-87 0 15 53 115 12 119 90S17 21 10-45l28-5c4 36 97 45 98 0-10-56-113-15-118-90-4-57 82-63 122-42 12 7 21 19 24 35" id="I"/><g id="d"><use transform="matrix(0.05,0,0,0.05,0,0)" xlink:href="#E"/><use transform="matrix(0.05,0,0,0.05,14,0)" xlink:href="#r"/><use transform="matrix(0.05,0,0,0.05,24,0)" xlink:href="#F"/><use transform="matrix(0.05,0,0,0.05,34,0)" xlink:href="#v"/><use transform="matrix(0.05,0,0,0.05,39.95,0)" xlink:href="#G"/><use transform="matrix(0.05,0,0,0.05,49.95,0)" xlink:href="#s"/><use transform="matrix(0.05,0,0,0.05,53.900000000000006,0)" xlink:href="#H"/><use transform="matrix(0.05,0,0,0.05,62.900000000000006,0)" xlink:href="#r"/><use transform="matrix(0.05,0,0,0.05,72.9,0)" xlink:href="#v"/><use transform="matrix(0.05,0,0,0.05,78.85000000000001,0)" xlink:href="#I"/><use transform="matrix(0.05,0,0,0.05,87.85000000000001,0)" xlink:href="#D"/><use transform="matrix(0.05,0,0,0.05,97.85000000000001,0)" xlink:href="#x"/><use transform="matrix(0.05,0,0,0.05,107.85000000000001,0)" xlink:href="#x"/><use transform="matrix(0.05,0,0,0.05,117.85000000000001,0)" xlink:href="#y"/></g><path d="M108 0H70L1-190h34L89-25l56-165h34" id="J"/><g id="e"><use transform="matrix(0.05,0,0,0.05,0,0)" xlink:href="#q"/><use transform="matrix(0.05,0,0,0.05,12.950000000000001,0)" xlink:href="#r"/><use transform="matrix(0.05,0,0,0.05,22.950000000000003,0)" xlink:href="#I"/><use transform="matrix(0.05,0,0,0.05,31.950000000000003,0)" xlink:href="#r"/><use transform="matrix(0.05,0,0,0.05,41.95,0)" xlink:href="#v"/><use transform="matrix(0.05,0,0,0.05,47.900000000000006,0)" xlink:href="#J"/><use transform="matrix(0.05,0,0,0.05,56.900000000000006,0)" xlink:href="#r"/><use transform="matrix(0.05,0,0,0.05,66.9,0)" xlink:href="#v"/><use transform="matrix(0.05,0,0,0.05,72.85000000000001,0)" xlink:href="#s"/><use transform="matrix(0.05,0,0,0.05,76.80000000000001,0)" xlink:href="#D"/><use transform="matrix(0.05,0,0,0.05,86.80000000000001,0)" xlink:href="#u"/></g><g id="f"><use transform="matrix(0.05,0,0,0.05,0,0)" xlink:href="#q"/><use transform="matrix(0.05,0,0,0.05,12.950000000000001,0)" xlink:href="#r"/><use transform="matrix(0.05,0,0,0.05,22.950000000000003,0)" xlink:href="#I"/><use transform="matrix(0.05,0,0,0.05,31.950000000000003,0)" xlink:href="#r"/><use transform="matrix(0.05,0,0,0.05,41.95,0)" xlink:href="#v"/><use transform="matrix(0.05,0,0,0.05,47.900000000000006,0)" xlink:href="#J"/><use transform="matrix(0.05,0,0,0.05,56.900000000000006,0)" xlink:href="#r"/><use transform="matrix(0.05,0,0,0.05,66.9,0)" xlink:href="#v"/><use transform="matrix(0.05,0,0,0.05,72.85000000000001,0)" xlink:href="#s"/><use transform="matrix(0.05,0,0,0.05,76.80000000000001,0)" xlink:href="#D"/><use transform="matrix(0.05,0,0,0.05,86.80000000000001,0)" xlink:href="#u"/><use transform="matrix(0.05,0,0,0.05,96.80000000000001,0)" xlink:href="#I"/><use transform="matrix(0.05,0,0,0.05,105.80000000000001,0)" xlink:href="#D"/><use transform="matrix(0.05,0,0,0.05,115.80000000000001,0)" xlink:href="#G"/><use transform="matrix(0.05,0,0,0.05,125.80000000000001,0)" xlink:href="#y"/><use transform="matrix(0.05,0,0,0.05,140.75,0)" xlink:href="#y"/><use transform="matrix(0.05,0,0,0.05,155.7,0)" xlink:href="#r"/><use transform="matrix(0.05,0,0,0.05,165.7,0)" xlink:href="#v"/></g><path d="M240 0l2-218c-23 76-54 145-80 218h-23L58-218 59 0H30v-248h44l77 211c21-75 51-140 76-211h43V0h-30" id="K"/><path d="M59-47c-2 24 18 29 38 22v24C64 9 27 4 27-40v-127H5v-23h24l9-43h21v43h35v23H59v120" id="L"/><g id="g"><use transform="matrix(0.05,0,0,0.05,0,0)" xlink:href="#K"/><use transform="matrix(0.05,0,0,0.05,14.950000000000001,0)" xlink:href="#x"/><use transform="matrix(0.05,0,0,0.05,24.950000000000003,0)" xlink:href="#x"/><use transform="matrix(0.05,0,0,0.05,34.95,0)" xlink:href="#H"/><use transform="matrix(0.05,0,0,0.05,43.95,0)" xlink:href="#L"/></g><g id="h"><use transform="matrix(0.05,0,0,0.05,0,0)" xlink:href="#z"/><use transform="matrix(0.05,0,0,0.05,12,0)" xlink:href="#r"/><use transform="matrix(0.05,0,0,0.05,22,0)" xlink:href="#A"/><use transform="matrix(0.05,0,0,0.05,32,0)" xlink:href="#A"/><use transform="matrix(0.05,0,0,0.05,42,0)" xlink:href="#v"/><use transform="matrix(0.05,0,0,0.05,47.95,0)" xlink:href="#B"/><use transform="matrix(0.05,0,0,0.05,57.95,0)" xlink:href="#r"/><use transform="matrix(0.05,0,0,0.05,67.95,0)" xlink:href="#r"/><use transform="matrix(0.05,0,0,0.05,77.95,0)" xlink:href="#C"/><use transform="matrix(0.05,0,0,0.05,81.9,0)" xlink:href="#L"/></g><g id="i"><use transform="matrix(0.05,0,0,0.05,0,0)" xlink:href="#q"/><use transform="matrix(0.05,0,0,0.05,12.950000000000001,0)" xlink:href="#s"/><use transform="matrix(0.05,0,0,0.05,16.900000000000002,0)" xlink:href="#L"/></g><g id="j"><use transform="matrix(0.05,0,0,0.05,0,0)" xlink:href="#q"/><use transform="matrix(0.05,0,0,0.05,12.950000000000001,0)" xlink:href="#s"/><use transform="matrix(0.05,0,0,0.05,16.900000000000002,0)" xlink:href="#L"/><use transform="matrix(0.05,0,0,0.05,21.900000000000002,0)" xlink:href="#D"/><use transform="matrix(0.05,0,0,0.05,31.900000000000002,0)" xlink:href="#G"/><use transform="matrix(0.05,0,0,0.05,41.900000000000006,0)" xlink:href="#y"/><use transform="matrix(0.05,0,0,0.05,56.85,0)" xlink:href="#y"/><use transform="matrix(0.05,0,0,0.05,71.80000000000001,0)" xlink:href="#r"/><use transform="matrix(0.05,0,0,0.05,81.80000000000001,0)" xlink:href="#v"/></g><path d="M212-179c-10-28-35-45-73-45-59 0-87 40-87 99 0 60 29 101 89 101 43 0 62-24 78-52l27 14C228-24 195 4 139 4 59 4 22-46 18-125c-6-104 99-153 187-111 19 9 31 26 39 46" id="M"/><path d="M106-169C34-169 62-67 57 0H25v-261h32l-1 103c12-21 28-36 61-36 89 0 53 116 60 194h-32v-121c2-32-8-49-39-48" id="N"/><path d="M101-234c-31-9-42 10-38 44h38v23H63V0H32v-167H5v-23h27c-7-52 17-82 69-68v24" id="O"/><g id="k"><use transform="matrix(0.05,0,0,0.05,0,0)" xlink:href="#M"/><use transform="matrix(0.05,0,0,0.05,12.950000000000001,0)" xlink:href="#N"/><use transform="matrix(0.05,0,0,0.05,22.950000000000003,0)" xlink:href="#x"/><use transform="matrix(0.05,0,0,0.05,32.95,0)" xlink:href="#G"/><use transform="matrix(0.05,0,0,0.05,42.95,0)" xlink:href="#O"/><use transform="matrix(0.05,0,0,0.05,47.6,0)" xlink:href="#O"/><use transform="matrix(0.05,0,0,0.05,52.6,0)" xlink:href="#r"/><use transform="matrix(0.05,0,0,0.05,62.6,0)" xlink:href="#G"/><use transform="matrix(0.05,0,0,0.05,72.6,0)" xlink:href="#v"/></g><g id="l"><use transform="matrix(0.05,0,0,0.05,0,0)" xlink:href="#z"/><use transform="matrix(0.05,0,0,0.05,12,0)" xlink:href="#r"/><use transform="matrix(0.05,0,0,0.05,22,0)" xlink:href="#J"/><use transform="matrix(0.05,0,0,0.05,31,0)" xlink:href="#r"/><use transform="matrix(0.05,0,0,0.05,41,0)" xlink:href="#I"/><use transform="matrix(0.05,0,0,0.05,50,0)" xlink:href="#L"/><use transform="matrix(0.05,0,0,0.05,55,0)" xlink:href="#s"/><use transform="matrix(0.05,0,0,0.05,58.95,0)" xlink:href="#u"/><use transform="matrix(0.05,0,0,0.05,68.95,0)" xlink:href="#L"/></g><g id="m"><use transform="matrix(0.05,0,0,0.05,0,0)" xlink:href="#z"/><use transform="matrix(0.05,0,0,0.05,12,0)" xlink:href="#r"/><use transform="matrix(0.05,0,0,0.05,22,0)" xlink:href="#L"/><use transform="matrix(0.05,0,0,0.05,27,0)" xlink:href="#x"/><use transform="matrix(0.05,0,0,0.05,37,0)" xlink:href="#C"/><use transform="matrix(0.05,0,0,0.05,40.95,0)" xlink:href="#s"/><use transform="matrix(0.05,0,0,0.05,44.900000000000006,0)" xlink:href="#D"/><use transform="matrix(0.05,0,0,0.05,54.900000000000006,0)" xlink:href="#u"/></g><g id="n"><use transform="matrix(0.05,0,0,0.05,0,0)" xlink:href="#q"/><use transform="matrix(0.05,0,0,0.05,12.950000000000001,0)" xlink:href="#r"/><use transform="matrix(0.05,0,0,0.05,22.950000000000003,0)" xlink:href="#O"/><use transform="matrix(0.05,0,0,0.05,27.950000000000003,0)" xlink:href="#r"/><use transform="matrix(0.05,0,0,0.05,37.95,0)" xlink:href="#v"/><use transform="matrix(0.05,0,0,0.05,43.900000000000006,0)" xlink:href="#r"/><use transform="matrix(0.05,0,0,0.05,53.900000000000006,0)" xlink:href="#D"/><use transform="matrix(0.05,0,0,0.05,63.900000000000006,0)" xlink:href="#L"/><use transform="matrix(0.05,0,0,0.05,68.9,0)" xlink:href="#s"/><use transform="matrix(0.05,0,0,0.05,72.85000000000001,0)" xlink:href="#r"/><use transform="matrix(0.05,0,0,0.05,82.85000000000001,0)" xlink:href="#D"/><use transform="matrix(0.05,0,0,0.05,92.85000000000001,0)" xlink:href="#G"/><use transform="matrix(0.05,0,0,0.05,102.85000000000001,0)" xlink:href="#y"/><use transform="matrix(0.05,0,0,0.05,117.80000000000001,0)" xlink:href="#y"/><use transform="matrix(0.05,0,0,0.05,132.75,0)" xlink:href="#r"/><use transform="matrix(0.05,0,0,0.05,142.75,0)" xlink:href="#v"/></g><path d="M137 0h-34L2-248h35l83 218 83-218h36" id="P"/><path d="M96-169c-40 0-48 33-48 73s9 75 48 75c24 0 41-14 43-38l32 2c-6 37-31 61-74 61-59 0-76-41-82-99-10-93 101-131 147-64 4 7 5 14 7 22l-32 3c-4-21-16-35-41-35" id="Q"/><g id="o"><use transform="matrix(0.05,0,0,0.05,0,0)" xlink:href="#P"/><use transform="matrix(0.05,0,0,0.05,11,0)" xlink:href="#r"/><use transform="matrix(0.05,0,0,0.05,21,0)" xlink:href="#v"/><use transform="matrix(0.05,0,0,0.05,26.950000000000003,0)" xlink:href="#v"/><use transform="matrix(0.05,0,0,0.05,32.9,0)" xlink:href="#s"/><use transform="matrix(0.05,0,0,0.05,36.85,0)" xlink:href="#Q"/><use transform="matrix(0.05,0,0,0.05,45.85,0)" xlink:href="#N"/><use transform="matrix(0.05,0,0,0.05,55.85,0)" xlink:href="#L"/></g><path d="M140-251c81 0 123 46 123 126C263-46 219 4 140 4 59 4 17-45 17-125s42-126 123-126zm0 227c63 0 89-41 89-101s-29-99-89-99c-61 0-89 39-89 99S79-25 140-24" id="R"/><g id="p"><use transform="matrix(0.05,0,0,0.05,0,0)" xlink:href="#R"/><use transform="matrix(0.05,0,0,0.05,14,0)" xlink:href="#D"/><use transform="matrix(0.05,0,0,0.05,24,0)" xlink:href="#L"/><use transform="matrix(0.05,0,0,0.05,29,0)" xlink:href="#J"/><use transform="matrix(0.05,0,0,0.05,38,0)" xlink:href="#x"/><use transform="matrix(0.05,0,0,0.05,48,0)" xlink:href="#D"/><use transform="matrix(0.05,0,0,0.05,58,0)" xlink:href="#u"/><use transform="matrix(0.05,0,0,0.05,68,0)" xlink:href="#L"/></g></defs></g></svg>