<?xml version="1.0" encoding="UTF-8" standalone="no"?><svg xmlns="http://www.w3.org/2000/svg" xmlns:xlink="http://www.w3.org/1999/xlink" contentScriptType="application/ecmascript" contentStyleType="text/css" height="353px" preserveAspectRatio="none" style="width:271px;height:353px;" version="1.1" viewBox="0 0 271 353" width="271px" zoomAndPan="magnify"><defs><filter height="300%" id="fltmg2g3jhu4c" width="300%" x="-1" y="-1"><feGaussianBlur result="blurOut" stdDeviation="2.0"/><feColorMatrix in="blurOut" result="blurOut2" type="matrix" values="0 0 0 0 0 0 0 0 0 0 0 0 0 0 0 0 0 0 .4 0"/><feOffset dx="4.0" dy="4.0" in="blurOut2" result="blurOut3"/><feBlend in="SourceGraphic" in2="blurOut3" mode="normal"/></filter></defs><g><!--entity Klant--><ellipse cx="23.5" cy="18" fill="#FEFECE" filter="url(#fltmg2g3jhu4c)" rx="8" ry="8" style="stroke: #A80036; stroke-width: 2.0;"/><path d="M23.5,26 L23.5,53 M10.5,34 L36.5,34 M23.5,53 L10.5,68 M23.5,53 L36.5,68 " fill="none" filter="url(#fltmg2g3jhu4c)" style="stroke: #A80036; stroke-width: 2.0;"/><text fill="#000000" font-family="sans-serif" font-size="14" lengthAdjust="spacingAndGlyphs" textLength="34" x="6.5" y="87.9951">Klant</text><ellipse cx="157.4151" cy="49.683" fill="#FEFECE" filter="url(#fltmg2g3jhu4c)" rx="81.4151" ry="18.683" style="stroke: #A80036; stroke-width: 1.5;"/><text fill="#000000" font-family="sans-serif" font-size="14" lengthAdjust="spacingAndGlyphs" textLength="134" x="90.4151" y="54.3315">Reservering maken</text><ellipse cx="70.4486" cy="183.2897" fill="#FEFECE" filter="url(#fltmg2g3jhu4c)" rx="64.4486" ry="15.2897" style="stroke: #A80036; stroke-width: 1.5;"/><text fill="#000000" font-family="sans-serif" font-size="14" lengthAdjust="spacingAndGlyphs" textLength="92" x="24.4486" y="187.9382">Match vinden</text><ellipse cx="215.4264" cy="183.5236" fill="#FEFECE" filter="url(#fltmg2g3jhu4c)" rx="45.4264" ry="14.5236" style="stroke: #A80036; stroke-width: 1.5;"/><text fill="#000000" font-family="sans-serif" font-size="14" lengthAdjust="spacingAndGlyphs" textLength="60" x="185.4264" y="188.1721">Inloggen</text><!--entity Chauffeur--><ellipse cx="70.5" cy="270" fill="#FEFECE" filter="url(#fltmg2g3jhu4c)" rx="8" ry="8" style="stroke: #A80036; stroke-width: 2.0;"/><path d="M70.5,278 L70.5,305 M57.5,286 L83.5,286 M70.5,305 L57.5,320 M70.5,305 L83.5,320 " fill="none" filter="url(#fltmg2g3jhu4c)" style="stroke: #A80036; stroke-width: 2.0;"/><text fill="#000000" font-family="sans-serif" font-size="14" lengthAdjust="spacingAndGlyphs" textLength="67" x="37" y="339.9951">Chauffeur</text><!--link Klant to Reservering maken--><path d="M40.5117,49.5 C50.4999,49.5 60.4882,49.5 70.4764,49.5 " fill="none" id="Klant-Reservering maken" style="stroke: #A80036; stroke-width: 1.0;"/><polygon fill="#A80036" points="75.6996,49.5,66.6996,45.5,70.6996,49.5,66.6996,53.5,75.6996,49.5" style="stroke: #A80036; stroke-width: 1.0;"/><!--link Reservering maken to Match vinden--><path d="M145.947,68.029 C129.518,92.955 99.5391,138.441 82.741,163.927 " fill="none" id="Reservering maken-Match vinden" style="stroke: #A80036; stroke-width: 1.0;"/><polygon fill="#A80036" points="79.9632,168.142,88.2557,162.8284,82.7146,163.9671,81.5759,158.4261,79.9632,168.142" style="stroke: #A80036; stroke-width: 1.0;"/><text fill="#000000" font-family="sans-serif" font-size="13" lengthAdjust="spacingAndGlyphs" textLength="45" x="109.5" y="134.0669">include</text><!--link Reservering maken to Inloggen--><path d="M165.202,68.029 C176.18,93.012 196.232,138.649 207.416,164.102 " fill="none" id="Reservering maken-Inloggen" style="stroke: #A80036; stroke-width: 1.0;"/><polygon fill="#A80036" points="209.529,168.911,209.5701,159.0622,207.5174,164.3335,202.2461,162.2808,209.529,168.911" style="stroke: #A80036; stroke-width: 1.0;"/><text fill="#000000" font-family="sans-serif" font-size="13" lengthAdjust="spacingAndGlyphs" textLength="45" x="195.5" y="134.0669">include</text><!--link Match vinden to Chauffeur--><path d="M70.5,199.191 C70.5,213.126 70.5,234.81 70.5,254.5474 " fill="none" id="Match vinden-Chauffeur" style="stroke: #A80036; stroke-width: 1.0;"/><polygon fill="#A80036" points="70.5,259.785,74.5,250.785,70.5,254.785,66.5,250.785,70.5,259.785" style="stroke: #A80036; stroke-width: 1.0;"/><!--
@startuml
:Klant: -right-> (Reservering maken) 
(Reservering maken) - -> (Match vinden) : include
(Reservering maken) - -> (Inloggen) : include
(Match vinden) - -> :Chauffeur:
@enduml

PlantUML version 1.2018.11beta1(Unknown compile time)
(GPL source distribution)
Java Runtime: Java(TM) SE Runtime Environment
JVM: Java HotSpot(TM) 64-Bit Server VM
Java Version: 1.7.0_25-b15
Operating System: Linux
Default Encoding: UTF-8
Language: en
Country: US
--></g></svg>